<?xml version="1.0" encoding="utf-8"?>
<!-- Generator: Adobe Illustrator 27.5.0, SVG Export Plug-In . SVG Version: 6.00 Build 0)  -->
<svg version="1.1" xmlns="http://www.w3.org/2000/svg" xmlns:xlink="http://www.w3.org/1999/xlink" x="0px" y="0px"
	 viewBox="0 0 500 500" style="enable-background:new 0 0 500 500;" xml:space="preserve">
<g id="Floor">
	<path id="Floor_00000054235454946884285890000001738935433422304934_" style="fill:#F5F5F5;" d="M98.347,274.604
		c-83.753,48.355-83.751,126.754,0.005,175.109c83.755,48.355,219.548,48.355,303.301,0c83.753-48.355,83.751-126.754-0.005-175.109
		C317.893,226.249,182.1,226.249,98.347,274.604z"/>
</g>
<g id="Plants">
	<g id="Plants_00000059303226784178879460000008081875220070060954_">
		<g id="XMLID_00000049907650221837429440000011727844351289270176_">
			<g id="XMLID_00000181770718395584810840000012073816886932097693_">
				<path id="XMLID_00000145778504738210913780000001206967059002893463_" style="fill:#BA68C8;" d="M108.779,381.371l8.208-6.214
					c0,0,2.538-22.529-2.013-41.949c-6.399-27.304-25.911-35.446-32.54-32.196c-6.629,3.25-7.631,11.552,5.884,26.604
					C96.291,336.497,107.122,355.715,108.779,381.371z"/>
			</g>
			<g id="XMLID_00000021826319703559986170000017498948339735804552_" style="opacity:0.65;">
				<path id="XMLID_00000183959096513225986980000011628655710386176911_" style="fill:#FFFFFF;" d="M108.779,381.371l8.208-6.214
					c0,0,2.538-22.529-2.013-41.949c-6.399-27.304-25.911-35.446-32.54-32.196c-6.629,3.25-7.631,11.552,5.884,26.604
					C96.291,336.497,107.122,355.715,108.779,381.371z"/>
			</g>
			<g id="XMLID_00000141424048551040818930000000259651779754884244_">
				<path id="XMLID_00000005231407735164151020000002598622056498208702_" style="fill:#FFFFFF;" d="M111.105,370.168
					c-0.029,0.002-0.057,0.002-0.086,0c-0.341-0.022-0.6-0.315-0.577-0.656c1.667-26.127-10.824-53.696-23.353-64.254
					c-0.261-0.219-0.294-0.61-0.074-0.871c0.221-0.258,0.61-0.294,0.871-0.074c12.757,10.751,25.48,38.766,23.788,65.278
					C111.656,369.902,111.407,370.146,111.105,370.168z"/>
			</g>
		</g>
		<g id="XMLID_00000049197293429954622040000007037796989399919495_">
			<g id="XMLID_00000097497160090463279790000010203404590397692833_">
				<path id="XMLID_00000024687471743001540310000001142564258052155824_" style="fill:#BA68C8;" d="M88.121,396.997
					c-1.237,0.837-5.126-1.732-6.197-2.342c-1.833-1.043-3.37-2.598-4.449-4.405c-1.255-2.104-1.703-4.424-1.539-6.865
					c0.085-1.266,0.346-2.513,0.606-3.755c0.255-1.219,0.51-2.439,0.766-3.658c0.252-1.203,0.504-2.447,0.259-3.652
					c-0.494-2.427-2.796-3.983-4.882-5.318c-2.307-1.476-4.743-3.469-4.948-6.42c-0.158-2.276,0.864-4.477,2.143-6.367
					c1.278-1.89,2.836-3.592,3.972-5.571c0.817-1.425,1.416-3.072,1.146-4.693c-0.168-1.007-0.658-1.931-1.209-2.79
					c-1.183-1.844-2.687-3.501-3.557-5.512c-0.871-2.01-0.958-4.584,0.544-6.179c1.232-1.309,3.184-1.624,4.982-1.637
					c1.663-0.013,3.335,0.615,4.843,1.313c4.875,2.258,7.956,7.608,13.073,9.245c1.974,0.632,4.086,0.646,6.123,1.026
					c2.037,0.381,4.149,1.251,5.211,3.031c2.093,3.509-0.961,8.248,0.606,12.021c1.387,3.339,4.809,4.403,6.904,7.35
					c0.916,1.289,1.219,2.834,1.204,4.416c-0.027,2.677-0.272,4.658-1.331,7.71c-0.875,2.523-3.612,7.426-3.612,7.426
					S88.311,396.868,88.121,396.997z"/>
			</g>
			<g id="XMLID_00000153688533205364451690000006671649400800349862_" style="opacity:0.3;">
				<path id="XMLID_00000147910577736836858980000006785864115634661565_" style="fill:#FFFFFF;" d="M88.121,396.997
					c-1.237,0.837-5.126-1.732-6.197-2.342c-1.833-1.043-3.37-2.598-4.449-4.405c-1.255-2.104-1.703-4.424-1.539-6.865
					c0.085-1.266,0.346-2.513,0.606-3.755c0.255-1.219,0.51-2.439,0.766-3.658c0.252-1.203,0.504-2.447,0.259-3.652
					c-0.494-2.427-2.796-3.983-4.882-5.318c-2.307-1.476-4.743-3.469-4.948-6.42c-0.158-2.276,0.864-4.477,2.143-6.367
					c1.278-1.89,2.836-3.592,3.972-5.571c0.817-1.425,1.416-3.072,1.146-4.693c-0.168-1.007-0.658-1.931-1.209-2.79
					c-1.183-1.844-2.687-3.501-3.557-5.512c-0.871-2.01-0.958-4.584,0.544-6.179c1.232-1.309,3.184-1.624,4.982-1.637
					c1.663-0.013,3.335,0.615,4.843,1.313c4.875,2.258,7.956,7.608,13.073,9.245c1.974,0.632,4.086,0.646,6.123,1.026
					c2.037,0.381,4.149,1.251,5.211,3.031c2.093,3.509-0.961,8.248,0.606,12.021c1.387,3.339,4.809,4.403,6.904,7.35
					c0.916,1.289,1.219,2.834,1.204,4.416c-0.027,2.677-0.272,4.658-1.331,7.71c-0.875,2.523-3.612,7.426-3.612,7.426
					S88.311,396.868,88.121,396.997z"/>
			</g>
			<g id="XMLID_00000047058725608334027960000003071707191705570749_">
				<path id="XMLID_00000169538258284009368120000016367057657256195238_" style="fill:#FFFFFF;" d="M100.092,388.728
					c-0.008,0.001-0.016,0.001-0.016,0.001c-0.331,0.011-0.601-0.243-0.612-0.565c-0.744-23.22-13.536-47.973-22.015-54.813
					c-0.251-0.202-0.291-0.57-0.088-0.822c0.204-0.251,0.571-0.29,0.822-0.088c8.65,6.977,21.695,32.138,22.451,55.685
					C100.644,388.441,100.403,388.706,100.092,388.728z"/>
			</g>
			<g id="XMLID_00000028284240794137749580000000724202198178586796_">
				<path id="XMLID_00000139296291025471604790000006911405073002699650_" style="fill:#FFFFFF;" d="M94.284,360.707
					c-0.057,0.004-0.116,0-0.174-0.014c-7.607-1.751-16.907-1.472-16.999-1.469c-0.323,0.01-0.593-0.244-0.604-0.566
					c-0.01-0.322,0.215-0.594,0.566-0.604c0.095-0.002,9.542-0.286,17.299,1.5c0.314,0.072,0.512,0.386,0.439,0.7
					C94.751,360.511,94.533,360.689,94.284,360.707z"/>
			</g>
		</g>
	</g>
	<g id="Plants_00000098912305346664635100000016870578462900791957_">
		<g id="XMLID_00000021827942755313343570000008278287882030469304_">
			<g id="XMLID_00000121251096483291302030000009405299329831353219_">
				<path id="XMLID_00000144296656825239478100000016220003252820686766_" style="fill:#BA68C8;" d="M391.885,381.371l-8.208-6.214
					c0,0-2.538-22.529,2.013-41.949c6.399-27.304,25.911-35.446,32.54-32.196c6.629,3.25,7.631,11.552-5.884,26.604
					C404.373,336.497,393.542,355.715,391.885,381.371z"/>
			</g>
			<g id="XMLID_00000070809594230477557550000003905590291654525867_" style="opacity:0.65;">
				<path id="XMLID_00000013909310273411216470000011492499032171600303_" style="fill:#FFFFFF;" d="M391.885,381.371l-8.208-6.214
					c0,0-2.538-22.529,2.013-41.949c6.399-27.304,25.911-35.446,32.54-32.196c6.629,3.25,7.631,11.552-5.884,26.604
					C404.373,336.497,393.542,355.715,391.885,381.371z"/>
			</g>
			<g id="XMLID_00000066497051759408909580000017252901862354848910_">
				<path id="XMLID_00000025412272357166561470000008566287079733126529_" style="fill:#FFFFFF;" d="M389.56,370.168
					c0.029,0.002,0.057,0.002,0.086,0c0.341-0.022,0.6-0.315,0.578-0.656c-1.667-26.127,10.824-53.696,23.353-64.254
					c0.261-0.219,0.294-0.61,0.074-0.871c-0.221-0.258-0.61-0.294-0.871-0.074c-12.757,10.751-25.48,38.766-23.789,65.278
					C389.009,369.902,389.257,370.146,389.56,370.168z"/>
			</g>
		</g>
		<g id="XMLID_00000078767766224502827930000008963253330765429433_">
			<g id="XMLID_00000058562549785530238780000010978320130424953533_">
				<path id="XMLID_00000089533941581286098540000008042204436493399685_" style="fill:#BA68C8;" d="M412.543,396.997
					c1.237,0.837,5.126-1.732,6.197-2.342c1.833-1.043,3.37-2.598,4.449-4.405c1.255-2.104,1.703-4.424,1.539-6.865
					c-0.085-1.266-0.346-2.513-0.606-3.755c-0.255-1.219-0.51-2.439-0.766-3.658c-0.252-1.203-0.504-2.447-0.259-3.652
					c0.494-2.427,2.796-3.983,4.882-5.318c2.307-1.476,4.743-3.469,4.948-6.42c0.158-2.276-0.864-4.477-2.143-6.367
					c-1.279-1.89-2.836-3.592-3.972-5.571c-0.817-1.425-1.416-3.072-1.146-4.693c0.168-1.007,0.658-1.931,1.21-2.79
					c1.183-1.844,2.687-3.501,3.557-5.512c0.871-2.01,0.958-4.584-0.544-6.179c-1.232-1.309-3.184-1.624-4.982-1.637
					c-1.663-0.013-3.335,0.615-4.843,1.313c-4.875,2.258-7.956,7.608-13.073,9.245c-1.974,0.632-4.086,0.646-6.123,1.026
					c-2.037,0.381-4.149,1.251-5.211,3.031c-2.093,3.509,0.961,8.248-0.606,12.021c-1.387,3.339-4.809,4.403-6.904,7.35
					c-0.916,1.289-1.219,2.834-1.204,4.416c0.027,2.677,0.272,4.658,1.331,7.71c0.875,2.523,3.612,7.426,3.612,7.426
					S412.353,396.868,412.543,396.997z"/>
			</g>
			<g id="XMLID_00000047775337954036425640000000565904263324639416_" style="opacity:0.3;">
				<path id="XMLID_00000139254522909879492300000008968680271327217291_" style="fill:#FFFFFF;" d="M412.543,396.997
					c1.237,0.837,5.126-1.732,6.197-2.342c1.833-1.043,3.37-2.598,4.449-4.405c1.255-2.104,1.703-4.424,1.539-6.865
					c-0.085-1.266-0.346-2.513-0.606-3.755c-0.255-1.219-0.51-2.439-0.766-3.658c-0.252-1.203-0.504-2.447-0.259-3.652
					c0.494-2.427,2.796-3.983,4.882-5.318c2.307-1.476,4.743-3.469,4.948-6.42c0.158-2.276-0.864-4.477-2.143-6.367
					c-1.279-1.89-2.836-3.592-3.972-5.571c-0.817-1.425-1.416-3.072-1.146-4.693c0.168-1.007,0.658-1.931,1.21-2.79
					c1.183-1.844,2.687-3.501,3.557-5.512c0.871-2.01,0.958-4.584-0.544-6.179c-1.232-1.309-3.184-1.624-4.982-1.637
					c-1.663-0.013-3.335,0.615-4.843,1.313c-4.875,2.258-7.956,7.608-13.073,9.245c-1.974,0.632-4.086,0.646-6.123,1.026
					c-2.037,0.381-4.149,1.251-5.211,3.031c-2.093,3.509,0.961,8.248-0.606,12.021c-1.387,3.339-4.809,4.403-6.904,7.35
					c-0.916,1.289-1.219,2.834-1.204,4.416c0.027,2.677,0.272,4.658,1.331,7.71c0.875,2.523,3.612,7.426,3.612,7.426
					S412.353,396.868,412.543,396.997z"/>
			</g>
			<g id="XMLID_00000109029459609310576290000017820313128154334649_">
				<path id="XMLID_00000183223036179622183710000013850147137754022038_" style="fill:#FFFFFF;" d="M400.572,388.728
					c0.008,0.001,0.016,0.001,0.016,0.001c0.331,0.011,0.601-0.243,0.612-0.565c0.744-23.22,13.536-47.973,22.015-54.813
					c0.251-0.202,0.291-0.57,0.088-0.822c-0.204-0.251-0.57-0.29-0.822-0.088c-8.65,6.977-21.695,32.138-22.451,55.685
					C400.021,388.441,400.261,388.706,400.572,388.728z"/>
			</g>
			<g id="XMLID_00000126291674620008214960000018016774233297296270_">
				<path id="XMLID_00000069369176927053000400000002468142855690892437_" style="fill:#FFFFFF;" d="M406.381,360.707
					c0.057,0.004,0.116,0,0.174-0.014c7.607-1.751,16.907-1.472,16.999-1.469c0.323,0.01,0.593-0.244,0.604-0.566
					c0.01-0.322-0.215-0.594-0.566-0.604c-0.095-0.002-9.542-0.286-17.299,1.5c-0.315,0.072-0.512,0.386-0.439,0.7
					C405.913,360.511,406.131,360.689,406.381,360.707z"/>
			</g>
		</g>
	</g>
</g>
<g id="Shadows">
	
		<ellipse id="Shadow_00000123435255023775885340000007145623446757383326_" style="fill:#E0E0E0;" cx="162.515" cy="410.455" rx="78.16" ry="45.126"/>
	
		<ellipse id="Shadow_00000128479673371840221260000004124813491102613946_" style="fill:#E0E0E0;" cx="338.485" cy="410.455" rx="78.16" ry="45.126"/>
</g>
<g id="Character_2">
	<g id="Character_00000171680974646372688240000014506025598451858879_">
		<g id="Bottom_00000102542188856302650390000007288912803716249481_">
			<g>
				<path style="fill:#FFA8A7;" d="M384.353,384.014c-0.38-11.646,0.502-19.297,0.337-39.502l0,0
					c-0.013-6.059-0.124-12.552-0.435-18.325c-1.047-19.419-3.928-26.1-4.143-29.848c0,0-0.015-30.188-0.582-72.652
					c-0.267-19.976-5.952-27.699-10.401-38.373h-54.95c-6.57,26.05-9.587,83.841-9.848,110.796
					c-0.133,13.742,5.202,75.225,5.285,76.918c0.294,6.005-0.658,9.379-3.051,11.863c-5.011,5.201-12.231,8.422-18.476,12.926
					c0.855,2.375,9.314,3.553,13.016,1.818c5.915-2.773,11.811-7.055,13.838-8.505c5.131-3.669,12.741-4.699,12.918-10.408
					c0.026-0.711,0.35-2.554,0.315-2.667c0.151-3.333,5.778-41.18,7.459-52.485c1.496-10.065,1.496-26.745,1.496-26.745
					l4.897-41.161c0,0,3.824,24.558,7.168,41.463c2.479,12.532,7.851,38.395,11.218,52.094c2.398,9.755,5.166,21.399,7.072,32.114
					c-0.304,4.307,3.785,26.775,4.781,31.993c0.996,5.219,12.329,5.543,13.203-3.39
					C386.054,405.991,384.446,386.869,384.353,384.014z"/>
			</g>
			<g>
				<path style="fill:#263238;" d="M280.356,405.918c-0.313,0.003-0.752,3.466,0.967,4.919c1.984,1.677,7.787,4.404,15.407,3.34
					c7.62-1.064,11.728-3.466,14.755-6.053c3.027-2.586,7.27-6.234,10.714-7.03c3.199-0.739,6.666-2.227,7.682-3.229
					c1.016-1.001,0.829-5.406,0.829-5.406L280.356,405.918z"/>
				<path id="XMLID_00000051385947233840830260000015075446702922696853_" style="fill:#37474F;" d="M328.489,375.171
					c0,0,0.754,0.169,0.961,1.186c0.247,1.212-0.252,4.936,0.273,6.924c0.728,2.763,1.255,8.435,0.858,10.697
					c-0.397,2.261-5.608,3.883-8.935,5.189c-3.398,1.334-7.317,4.052-10.751,6.943c-3.555,2.992-11.068,6.035-16.04,6.158
					c-7.59,0.188-12.528-1.822-14.073-4.535c-1.912-3.357-1.539-6.431,7.144-10.562c1.644-0.782,7.41-4.274,9.374-5.538
					c2.076-1.336,4.063-2.819,5.892-4.479c0.925-0.84,1.809-1.726,2.636-2.662c0.728-0.824,1.756-1.823,2.181-2.844
					c0.097-0.231,0.162-0.501,0.248-0.741c0.248-0.693,0.416-1.331,0.548-2.051c0.133-0.726,0.211-1.785,0.897-2.226
					c0.787-0.507,2.217-0.459,3.114-0.4c1.129,0.074,3.633,0.603,4.729,0.88c1.955,0.494,2.494,1.039,3.267,2.237
					c0.592,0.918,0.694,2.085,0.751,3.153c0.027,0.509,0.021,1.022,0.031,1.532c0.004,0.217-0.085,0.61,0.219,0.516
					c0.289-0.089,0.605-0.854,0.712-1.114c0.236-0.573,0.385-1.184,0.644-1.748c0.296-0.645,0.631-1.306,1.067-1.858
					c0.407-0.516,0.851-1.011,1.366-1.421c0.469-0.372,1.07-0.562,1.484-0.983C327.612,376.892,328.447,375.603,328.489,375.171z"/>
				<path style="fill:#FAFAFA;" d="M286.525,397.852c10.999,0.646,15.609,8.501,16.118,12.698c-2.714,0.992-5.515,1.663-7.788,1.719
					c-7.59,0.188-12.84-1.815-14.386-4.528C278.665,404.573,278.763,400.889,286.525,397.852z"/>
				<g>
					<g>
						<path style="fill:#F0F0F0;" d="M304.082,398.901c0.12-0.001,0.239-0.042,0.339-0.125c0.228-0.19,0.257-0.528,0.068-0.756
							c-1.549-1.858-7.066-5.397-11.057-4.921c-0.295,0.034-0.506,0.302-0.47,0.596c0.034,0.294,0.294,0.504,0.596,0.47
							c3.725-0.433,8.879,3.069,10.108,4.543C303.771,398.836,303.926,398.902,304.082,398.901z"/>
					</g>
					<g>
						<path style="fill:#F0F0F0;" d="M308.788,396.095c0.12-0.001,0.239-0.041,0.339-0.125c0.228-0.189,0.258-0.528,0.068-0.756
							c-1.551-1.86-7.07-5.404-11.056-4.921c-0.295,0.034-0.506,0.302-0.47,0.596c0.034,0.293,0.289,0.504,0.596,0.47
							c3.724-0.438,8.879,3.069,10.107,4.543C308.477,396.031,308.632,396.096,308.788,396.095z"/>
					</g>
					<g>
						<path style="fill:#F0F0F0;" d="M313.141,392.901c0.12-0.001,0.239-0.042,0.339-0.125c0.228-0.19,0.257-0.528,0.068-0.756
							c-1.549-1.86-7.085-5.4-11.057-4.921c-0.295,0.034-0.506,0.302-0.47,0.596c0.034,0.294,0.291,0.503,0.596,0.47
							c3.72-0.435,8.879,3.069,10.107,4.543C312.831,392.836,312.985,392.902,313.141,392.901z"/>
					</g>
					<g>
						<path style="fill:#F0F0F0;" d="M317.406,389.707c0.117-0.001,0.234-0.04,0.332-0.12c0.231-0.186,0.266-0.525,0.08-0.755
							c-2.132-2.637-7.987-5.443-11.972-4.966c-0.295,0.034-0.506,0.302-0.47,0.596c0.034,0.294,0.292,0.497,0.596,0.47
							c3.589-0.427,9.12,2.238,11.012,4.575C317.091,389.641,317.249,389.708,317.406,389.707z"/>
					</g>
				</g>
			</g>
			<g>
				<path style="fill:#263238;" d="M368.642,419.322c0.216,5.189,0.965,8.638,2.754,11.708c1.789,3.07,5.243,4.082,8.771,3.25
					c3.529-0.832,8.068-3.138,9.149-7.592c1.081-4.455,1.718-7.51,1-12.33L368.642,419.322z"/>
				<path id="XMLID_00000147221345403637968480000002345543436570397358_" style="fill:#37474F;" d="M384.291,381.627
					c1.446,0.137,1.33,7.507,2.05,14.49c0.771,7.484,2.95,10.611,3.649,16.748c0.798,7.012-0.412,10.119-2.933,14.309
					c-2.521,4.191-11.268,8.197-15.446,2.068c-3.405-4.997-3.075-10.464-3.026-17.459c0.051-7.323-0.347-12.266-1.035-17.712
					c-0.792-6.277-1.33-10.174-0.062-10.736c0.084,0.771,0.162,1.749,0.252,2.506c0.111,0.932,0.364,2.768,0.364,2.768
					c0.141,0.392,0.515,0.839,0.656,0.208c0.096-0.428,0.061-0.873,0.021-1.303c-0.18-1.933,0.795-2.074,1.322-2.215
					c1.143-0.306,6.568-1.157,7.654-1.213c1.107-0.058,4.929-0.16,5.414,0.478c0.328,0.432,0.365,1.147,0.454,2.031
					c0.106,1.055,0.119,1.714,0.373,1.5c0.301-0.253,0.312-2.246,0.301-2.721c-0.01-0.454-0.017-1.486-0.016-1.942
					C384.284,382.983,384.314,382.075,384.291,381.627z"/>
				<path style="fill:#FAFAFA;" d="M390.495,416.925c0.178,4.349-0.909,7.307-2.883,10.588c-2.521,4.19-11.968,8.199-16.145,2.07
					c-2.079-3.05-2.59-6.624-2.823-10.265C371.285,414.69,386.517,412.883,390.495,416.925z"/>
				<g>
					<g>
						<path style="fill:#F0F0F0;" d="M371.928,411.762c0.061-0.005,0.121-0.02,0.179-0.046c0.059-0.026,6.803-2.687,13.299-1.07
							c0.287,0.066,0.578-0.104,0.651-0.392c0.071-0.288-0.105-0.579-0.393-0.651c-6.87-1.706-13.748,1.02-14.005,1.135
							c-0.27,0.125-0.388,0.443-0.265,0.713C371.491,411.662,371.709,411.781,371.928,411.762z"/>
					</g>
					<g>
						<path style="fill:#F0F0F0;" d="M385.169,405.426c0.203-0.017,0.388-0.15,0.461-0.354c0.098-0.28-0.046-0.587-0.325-0.688
							c-6.455-2.306-13.713,0.875-13.986,1.014c-0.266,0.133-0.372,0.455-0.238,0.72c0.134,0.264,0.461,0.365,0.72,0.238
							c0.061-0.03,7.135-3.113,13.141-0.959C385.017,405.424,385.094,405.432,385.169,405.426z"/>
					</g>
					<g>
						<path style="fill:#F0F0F0;" d="M385.021,400.505c0.199-0.017,0.382-0.146,0.457-0.345c0.105-0.279-0.035-0.589-0.312-0.692
							c-7.097-2.675-13.994,0.818-14.25,0.968c-0.256,0.15-0.342,0.479-0.192,0.734c0.15,0.256,0.485,0.343,0.734,0.192
							c0.057-0.034,6.722-3.378,13.328-0.891C384.865,400.501,384.944,400.511,385.021,400.505z"/>
					</g>
					<g>
						<path style="fill:#EBEBEB;" d="M384.746,395.658c0.196-0.017,0.377-0.142,0.455-0.338c0.108-0.276-0.026-0.588-0.302-0.696
							c-6.649-2.615-14.07,0.96-14.349,1.117c-0.26,0.142-0.353,0.469-0.209,0.729c0.142,0.26,0.468,0.358,0.729,0.209
							c0.065-0.035,7.261-3.486,13.434-1.056C384.585,395.653,384.666,395.665,384.746,395.658z"/>
					</g>
				</g>
			</g>
			<path style="fill:#37474F;" d="M372.963,185.314c6.314,11.979,9.66,23.389,9.737,58.698c0.077,35.309-1.236,45.349-1.168,49.608
				c0.068,4.259,3.786,13.734,3.884,34.815c0.083,17.858-0.074,31.406-0.074,31.406s-2.078,4.221-10.108,4.807
				c-7.407,0.541-12.812-2.296-12.812-2.296s-9.054-29.597-11.486-42.305c-2.811-14.692-8.418-49.64-8.418-49.64l-4.032,28.417
				c0,0,0.685,11.286-1.138,25.053c-2.431,18.366-5.437,32.317-5.437,32.317s-6.757,1.854-13.083,1.655
				c-6.326-0.2-11.045-3.019-11.045-3.019s-4.219-39.237-4.578-65.234c-0.288-20.841,1.171-73.506,3.271-104.282H372.963z"/>
			<path style="fill:#263238;" d="M316.085,216.712c3,8.658,14.335,14.873,19.34,16.16l3.947,37.554l-0.885,28.397l4.032-28.417
				l-4.904-44.242C337.615,226.166,323.696,224.94,316.085,216.712z M363.822,213.301c0.768,3.396,1.457,6.812,2.196,10.225
				c0.723,3.418,1.449,6.834,2.234,10.276c0.136-3.534-0.117-7.061-0.523-10.556c-0.395-3.501-0.999-6.973-1.738-10.42
				c-0.779-3.437-1.68-6.854-2.847-10.19c-1.157-3.333-2.524-6.621-4.366-9.643c0.997,3.387,1.878,6.751,2.71,10.133
				C362.3,206.511,363.095,209.896,363.822,213.301z M369.854,206.886c1.1,2.057,2.143,4.139,3.195,6.225l3.102,6.365
				c-0.163-2.403-0.738-4.756-1.499-7.027c-0.751-2.28-1.738-4.468-2.832-6.595c-1.131-2.107-2.367-4.156-3.777-6.085
				c-1.398-1.934-2.927-3.778-4.679-5.426c1.006,2.186,2.113,4.266,3.213,6.34C367.664,202.765,368.789,204.811,369.854,206.886z
				 M363.258,295.853c-1.661-9.817-2.794-19.733-3.913-29.656c-1.083-9.928-2.159-19.867-3.373-29.795
				c0.439,9.992,0.993,19.975,1.815,29.945c0.8,9.97,1.851,19.937,3.485,29.838c1.759,9.878,3.535,19.678,5.43,29.499
				c1.866,9.816,3.862,19.611,5.986,29.388c-1.352-9.907-2.83-19.797-4.438-29.665C366.672,315.544,364.968,305.659,363.258,295.853
				z M316.177,260.718l2.273-28.717c-1.637,9.473-2.947,19.001-3.993,28.557c-1.018,9.57-1.998,19.1-2.188,28.816
				c0.165,9.674,0.743,19.232,1.37,28.829c0.623,9.586,1.428,19.161,2.399,28.725c-0.109-9.612-0.335-19.215-0.667-28.811
				l-0.487-14.391c-0.163-4.788-0.375-9.602-0.394-14.351c-0.002-4.729,0.362-9.53,0.66-14.306
				C315.446,270.284,315.833,265.504,316.177,260.718z"/>
		</g>
		<g id="Top_00000013889428094193567900000015136665636152769963_">
			<g id="Chest_00000126321248317738110120000007555078447914782353_">
				<path id="Arm_00000057136099292824093860000008650007588194307222_" style="fill:#37474F;" d="M319.693,123.352
					c-9.663,2.882-16.492,5.312-23.006,14.838c-7.446,10.887-19.811,29.789-21.068,42.028c4.316,0.243,20.527,0.371,20.527,0.371
					l13.044-22.54L319.693,123.352z"/>
				<path id="Chest_00000111190808175690646200000003202971353443799224_" style="fill:#455A64;" d="M379.238,199.085
					c-1.026-15.416-1.481-20.872-1.481-29.255c0-8.383,0.523-12.524,0.664-18.714c0.346-15.215-5.182-24.368-8.287-26.995
					c0,0-4.788-0.945-11.588-2.459c-2.327-0.518-4.396-0.782-7.928-1.28c-7.844-1.107-11.521,0.004-14.455,0.303
					c-1.446,0.147-7.023,0.4-7.023,0.4c-2.074,0.484-9.44,2.262-9.447,2.267c0,0-2.266,2.915-6.698,10.836
					c-3.383,6.045-5.911,10.196-6.521,23.76c-0.828,18.383-1.114,42.803-1.114,42.803
					C313.861,212.119,365.026,215.637,379.238,199.085z"/>
				<g id="Head_00000080917664579675295850000015857493782012488345_">
					<path id="Hair_00000170280002831185121530000016153853407599031174_" style="fill:#263238;" d="M360.764,71.252
						c-1.476-9.098-17.263-20.074-35.139-10.786c-17.876,9.288-13.006,20.625-12.21,24.006c0.661,2.809,1.224,5.77,1.167,8.665
						c-0.052,2.652-0.735,5.371-2.399,7.438c-1.664,2.066-4.472,2.501-6.562,1.409c0.354,4.126,2.693,7.403,8.863,10.143
						c2.403,1.067,6.079,1.318,8.077,0.974c-0.947,0.615-2.321,1.598-6.376,1.351c2.487,3.224,11.961,6.628,20.825,1.26
						c0.402-0.243,0.925-0.223,1.392-0.167c0.573,0.068,1.079,0.388,1.591,0.653c3.928,2.034,9.075,1.738,13.298,1.001
						c2.355-0.411,4.698-1.092,6.719-2.368c2.021-1.276,3.703-3.201,4.336-5.506c0.425,2.095,0.068,4.339-0.986,6.199
						c1.543-0.435,3.094-0.988,4.331-2.009c2.265-1.869,3.851-5.041,3.641-7.97c-0.21-2.929-1.29-5.561-2.305-8.316
						c-1.138-3.091-1.854-6.095-1.724-9.417c0.104-2.684,0.084-5.13-0.161-7.337C366.636,75.943,364.645,71.885,360.764,71.252z"/>
					<g>
						<path style="fill:#FFA8A7;" d="M354.133,116.901c0-3.163,0.002-12.805,0.002-12.805c0.033,0.812,3.804,3.401,7.606,0.168
							c4.268-3.63,4.359-8.336,2.452-11.307c-2.107-3.284-7.291-3.478-9.715,1.473c-1.577,1.734-4.136-0.587-2.58-5.476
							c0.57-1.789-0.976-3.021-1.791-4.302c-0.822-1.291-1.034-2.939-1.144-4.433c-0.323-4.38-1.63-8.258-6.707-8.509
							c-2.107-0.104-4.197,0.558-6.049,1.568c-0.92,0.502-1.921,1.114-2.942,0.874c-1.018-0.239-1.641-1.226-2.386-1.959
							c-1.183-1.162-2.975-1.946-4.591-1.353c-2.822,1.035-4.39,4.623-5.092,7.304c-1.156,4.412-1.84,8.965-2,13.523
							c-0.405,11.512,2.587,16.833,5.814,19.461c1.804,1.469,4.237,2.326,8.561,2.272c0,0,0.122,1.426,0.201,3.547
							c0.072,1.939-0.134,3.044-1.932,3.507c-1.207,0.311-2.94,0.683-2.94,0.683s-6.019,6.483,5.198,7.935
							c17.879,2.316,25.81-7.111,25.81-7.111s-2.005-0.48-2.604-0.662C354.823,120.548,354.133,120.064,354.133,116.901z"/>
						<g id="XMLID_00000049922229874016064880000007334886748966562749_">
							<path id="XMLID_00000049936900784427944490000007995617103321765024_" style="fill:#F28F8F;" d="M333.571,113.402
								c7.768-0.234,15.044-3.134,17.676-9.306c0,0-0.287,4.779-4.734,7.758c-5.713,3.826-12.794,3.863-12.794,3.863
								L333.571,113.402z"/>
						</g>
						<g>
							<path id="XMLID_00000067953839660821241280000013588530578466424715_" style="fill:#263238;" d="M323.544,79.855l4.806-0.836
								c-0.182-1.346-1.406-2.251-2.734-2.02C324.29,77.23,323.362,78.509,323.544,79.855z"/>
							<path id="XMLID_00000090978258899751573160000017230340482662729629_" style="fill:#263238;" d="M344.29,81.254l-4.513-2.01
								c0.512-1.277,1.938-1.862,3.185-1.307C344.208,78.493,344.803,79.978,344.29,81.254z"/>
							<path id="XMLID_00000093135951508921149120000017393898368922344356_" style="fill:#263238;" d="M327.882,86.456
								c0.007,1.112-0.9,2.042-2.025,2.08c-1.125,0.037-2.042-0.835-2.048-1.946c-0.007-1.112,0.9-2.042,2.024-2.079
								C326.957,84.474,327.875,85.345,327.882,86.456z"/>
							<path id="XMLID_00000088841745242114858550000012094850196019655824_" style="fill:#263238;" d="M342.559,87.854
								c0.007,1.111-0.9,2.042-2.025,2.08c-1.125,0.037-2.042-0.835-2.048-1.946c-0.007-1.112,0.9-2.043,2.024-2.079
								C341.634,85.871,342.552,86.742,342.559,87.854z"/>
						</g>
						<g>
							<g>
								<path style="fill:#455A64;" d="M349.376,83.212l11.742,7.527c-1.296-0.258-2.156-0.278-3.859,0.563l-8.457-5.34
									L349.376,83.212z"/>
							</g>
							<path style="fill:#455A64;" d="M317.242,83.829c0.766,1.511,0.457,4.195,1.172,5.925c0.727,3.444,6.72,5.747,10.142,2.565
								c0.572-0.547,1.002-1.214,1.35-1.878c0.916-1.748,0.872-4.287,2.2-4.49c3.653-0.232-0.096,9.159,9.804,9.247
								c4.798,0.108,6.024-4.396,6.735-8.026c0.279-1.047,1.14-1.196,1.333-2.499c0.06-1.394-0.878-1.778-1.928-1.871
								c-3.028-0.571-7.279-1.109-9.708-0.614c-3.039,0.632-4.142,1.526-5.809,1.393c-1.556-0.135-2.508-1.195-5.28-2.296
								c-2.476-0.971-6.622-1.13-9.697-0.972C316.02,80.586,316.518,83.108,317.242,83.829z M336.074,84.98
								c2.225-2.248,9.313-1.894,10.698-0.223c0.761,0.992-0.007,4.212-0.527,5.716c-0.067,0.181-0.143,0.361-0.229,0.551
								c-0.683,2.03-2.876,2.883-5.006,2.748c-1.577-0.099-3.119-0.743-3.974-1.871c-0.782-0.957-1.092-2.059-1.22-2.817
								C335.551,87.548,335.459,85.765,336.074,84.98z M323.192,81.816c5.433,0.907,7.491,2.324,5.531,7.709
								c-0.727,2.584-4.567,3.721-7.174,2.186c-1.972-1.171-2.353-3.5-2.526-4.575C318.371,82.66,318.693,81.514,323.192,81.816z"/>
						</g>
						<path style="fill:#F28F8F;" d="M325.969,93.957l6.199,3.51l1.743-9.81c-0.191-0.611-0.404-1.1-0.667-1.301L325.969,93.957z"/>
					</g>
					<g>
						<path id="XMLID_00000031906554451911130480000011919337924297411507_" style="fill:#B16668;" d="M338.202,98.413l-7.764,2.06
							c0.526,2.218,2.69,3.557,4.835,2.988C337.417,102.892,338.728,100.631,338.202,98.413z"/>
						<path style="fill:#F28F8F;" d="M337.316,99.737c0.331-0.052,0.655-0.054,0.972-0.034c-0.124,1.744-1.291,3.299-3.015,3.757
							c-0.432,0.115-0.863,0.133-1.283,0.101C333.783,101.761,335.239,100.063,337.316,99.737z"/>
					</g>
				</g>
				<path id="Arm_00000114068033616079252950000005908383936864560549_" style="fill:#37474F;" d="M370.134,124.122
					c11.567,3.557,12.661,9.474,12.829,14.049c0.23,6.246-4.072,19.429-7.486,29.478c-6.377,18.767-12.343,26.416-19.049,26.416
					l-5.181-26.165l5.825-18.518C357.071,149.382,362.255,128.648,370.134,124.122z"/>
			</g>
			<g id="Hands_00000042699296606801121600000001077480972905833663_">
				<path style="fill:#FFA8A7;" d="M328.503,144.064c6.786,5.917,13.569,11.648,19.65,16.633c5.171,4.239,8.83,7.128,10.815,10.547
					c1.985,3.419,3.248,16.326,0.882,20.949c-2.366,4.622-14.815-0.032-19.689-4.842c-4.874-4.809-8.605-13.689-12.615-20.128
					c-4.01-6.439-6.953-10.722-10.397-12.531L328.503,144.064z"/>
				<path style="fill:#F28F8F;" d="M317.149,154.692l0.993-0.929c3.646,1.495,6.104,3.934,9.047,8.271
					c3.728,5.493,8.83,22.436,15.149,27.116c-0.823-0.585-1.561-1.19-2.177-1.798c-4.874-4.809-8.605-13.689-12.615-20.128
					C323.537,160.784,320.594,156.501,317.149,154.692z"/>
				<g>
					<path style="fill:#FFA8A7;" d="M295.432,154.42c0.7,1.159-0.604,3.143-1.503,4.388s-4.075,4.303-7.699,6.632
						c-3.851,2.473-7.579,5.887-9.406,9.819c-1.827,3.932-1.709,11.356,0.085,14.03c1.794,2.674,6.135,1.702,10.005-0.121
						c5.326-2.508,8.234-6.456,12.208-12.285c4.32-6.337,7.621-11.729,10.224-14.907C311.948,158.798,295.432,154.42,295.432,154.42
						z"/>
					<path style="fill:#F28F8F;" d="M293.641,182.539c2.519-3.37,9.18-18.331,7.676-21.161c-1.504-2.831-5.648-4.713-6.645-3.669v0
						c0.699-1.126,1.276-2.432,0.759-3.288c0,0,16.516,4.378,13.913,7.556c-2.602,3.178-5.904,8.571-10.224,14.907
						c-3.974,5.829-6.882,9.777-12.208,12.285C286.914,189.168,291.122,185.908,293.641,182.539z"/>
					<path style="fill:#B16668;" d="M290.509,152.261c2.34,0.224,4.268,1.652,6.104,3.026c1.836,1.374,7.929,5.678,11.412,5.894
						C311.509,161.397,296.775,148.461,290.509,152.261z"/>
				</g>
				<g>
					<path style="fill:#FFA8A7;" d="M300.33,146.286c-3.609-0.703-6.198,0.861-9.502,1.099c-3.304,0.238-5.227-0.089-7.526,1.293
						c-2.299,1.382-3.248,3.244-0.397,4.08c2.85,0.836,5.575-0.614,8.349-0.429c2.774,0.186,4.626,0.576,7.727,3.112
						c3.102,2.536,7.414,7.005,9.976,8.651c2.562,1.646,4.08,0.397,4.08,0.397s1.692,1.98,3.242,2.55
						c1.55,0.57,2.321-0.891,2.201-1.81c1.383,0.135,2.57-0.587,2.248-2.294c-0.322-1.707-3.02-4.832-3.02-4.832
						s1.606,1.355,2.46,1.985c1.591,1.174,3.221-0.105,2.261-2.432c-0.96-2.327-9.038-8.979-12.007-10.036
						c-2.969-1.057-5.756-0.13-5.756-0.13S302.836,146.774,300.33,146.286z"/>
					<path style="fill:#F28F8F;" d="M318.906,157.709c2.401,1.954,3.194,2.246,3.704,1.894c-0.327,0.962-1.39,1.262-2.442,0.486
						c-0.853-0.63-2.46-1.985-2.46-1.985l-5.919-6.063C311.789,152.04,316.415,155.681,318.906,157.709z"/>
					<path style="fill:#F28F8F;" d="M311.046,154.42c0.472,0.941,2.167,2.464,3.592,4.326c1.425,1.862,3.116,4.107,4.311,5.026
						c0.934,0.719,1.667-0.026,1.827-0.191c-0.059,1.241-1.103,1.764-2.297,1.648c-0.213-1.258-1.954-3.449-3.61-5.499
						c-1.656-2.05-4.926-5.218-4.74-5.764C310.315,153.421,310.574,153.479,311.046,154.42z"/>
					<path style="fill:#F28F8F;" d="M307.442,155.069c-0.534-0.614,0.426-1.489,0.812-0.639c0.386,0.85-0.089,0.912,1.145,2.352
						c1.234,1.441,3.65,3.988,4.292,4.894c0.642,0.906,1.617,2.139,0.889,4.311c0,0,0,0.001,0,0.001
						c-0.878-0.721-1.543-1.499-1.543-1.499c0.758-0.623,0.71-2.308-0.671-3.848C310.986,159.101,307.976,155.684,307.442,155.069z"
						/>
					<path style="fill:#F28F8F;" d="M281.158,151.346L281.158,151.346c0.568,0.872,3.391,0.827,5.255,0.181
						c1.864-0.646,5.965-1.762,8.307-1.312c2.342,0.45,4.709,1.995,7.183,5.157c2.474,3.162,5.848,6.801,7.925,8.172
						c2.076,1.37,2.908,1.125,2.909,1.125c-0.56,0.273-1.882,0.641-3.779-0.578c-2.562-1.646-6.874-6.115-9.976-8.651
						c-3.102-2.536-4.953-2.926-7.727-3.112c-2.774-0.186-5.499,1.265-8.349,0.429C281.757,152.421,281.233,151.917,281.158,151.346
						z"/>
				</g>
				<g>
					<path style="fill:#FFA8A7;" d="M316.858,153.778c-2.212-0.487-3.59-0.566-6.508-0.634c-4.009-0.391-7.783-0.758-8.477-1.778
						c-0.694-1.02-3.153-3.482-3.203-4.597c-0.05-1.116,0.734-1.833,0.734-1.833s-1.016-0.972-1.444-2.283
						c-0.428-1.312,0.521-2.904,0.521-2.904s-0.744-0.56-1.09-1.755c-0.395-1.364,0.511-2.887,1.949-3.326
						c-0.973-0.721-1.266-2.002-1.165-3.035c0.143-1.463,2.019-2.516,4.47-1.965c2.451,0.552,7.322,1.966,8.427,1.238
						c1.105-0.727,0.566-4.641,0.704-7.132c0.138-2.491,1.752-6.649,4.105-6.224c1.252,0.226,0.592,4.073,1.197,7.5
						c0.605,3.427,3.876,7.34,5.654,11.583c0.838,1.999,3.091,4.667,5.771,7.431c-0.468,4.808-4.899,9.818-8.242,10.811
						C318.842,154.27,318.025,154.036,316.858,153.778z"/>
					<path style="fill:#F28F8F;" d="M311.071,130.906c0.676-0.445,0.736-2.083,0.713-3.858l0,0c0.476,1.696,2.603,3.711,1.649,4.496
						c-0.954,0.785-4.309-0.363-6.472-0.86l0.001,0C308.78,131.066,310.474,131.298,311.071,130.906z"/>
					<g>
						<path style="fill:#F28F8F;" d="M298.326,135.226c0.292-0.246,0.632-0.442,1.013-0.558c0,0,2.637,1.313,4.983,2.282
							C300.927,136.496,299.193,135.772,298.326,135.226z"/>
						<path style="fill:#F28F8F;" d="M298.481,139.749c1.315,0.94,4.174,2.441,4.174,2.441s-2.906-0.715-4.634-1.354
							C298.208,140.209,298.481,139.749,298.481,139.749z"/>
						<path style="fill:#F28F8F;" d="M299.404,144.936L299.404,144.936L299.404,144.936c1.039,0.966,4.095,2.919,4.095,2.919
							s-3.062-0.977-4.691-1.961C299.02,145.295,299.404,144.936,299.404,144.936z"/>
					</g>
					<path style="fill:#F28F8F;" d="M299.36,148.216c1.224,1.562,2.842,3.148,7.298,3.642c3.793,0.421,7.726,0.435,11.484,1.904
						c0.61,0.238,1.769,0.824,2.184,1.093c0,0.005-0.12,0.036-0.12,0.036c-3.588-1.277-6.321-1.402-9.857-1.747
						c-4.009-0.391-7.783-0.758-8.477-1.778C301.408,150.683,300.154,149.355,299.36,148.216L299.36,148.216z"/>
					<path style="fill:#B16668;" d="M310.349,153.144l-3.572-0.502c-1.184-0.18-2.381-0.336-3.511-0.684
						c-0.56-0.185-1.121-0.36-1.416-0.875c-0.378-0.48-0.769-0.935-1.169-1.384c-0.397-0.451-0.788-0.905-1.151-1.38
						c-0.352-0.474-0.754-0.952-0.861-1.551c0.054,0.611,0.419,1.135,0.732,1.644c0.341,0.5,0.714,0.976,1.088,1.447
						c0.37,0.475,0.77,0.926,1.124,1.401c0.078,0.116,0.169,0.24,0.296,0.372c0.126,0.107,0.257,0.213,0.399,0.281
						c0.277,0.16,0.57,0.259,0.862,0.354c1.18,0.334,2.378,0.492,3.576,0.621C307.946,153.013,309.147,153.087,310.349,153.144z"/>
					<path style="fill:#F28F8F;" d="M305.452,136.837c0.231,0.16,0.402,0.374,0.741,0.7c0.269,0.258,0.598,0.461,0.94,0.617
						c0.162,0.074,0.447,0.15,0.622,0.178c0.171,0.027,0.964,0.07,1.075,0.088c0.137,0.022,0.295,0.062,0.404,0.15
						c0.033,0.026,0.02,0.1-0.016,0.12c-0.214,0.116-0.474,0.148-0.714,0.166c-0.261,0.019-0.509,0.106-0.77,0.099
						c-0.388-0.011-0.747-0.098-1.085-0.29c-0.316-0.18-0.549-0.497-0.756-0.791c-0.296-0.42-0.356-0.643-0.45-1.022
						C305.443,136.848,305.445,136.833,305.452,136.837z"/>
					<path style="fill:#F28F8F;" d="M303.876,141.98c0.231,0.16,0.402,0.374,0.742,0.7c0.269,0.259,0.598,0.461,0.94,0.617
						c0.162,0.074,0.447,0.15,0.623,0.178c0.171,0.027,0.964,0.07,1.075,0.087c0.137,0.022,0.295,0.062,0.404,0.15
						c0.033,0.026,0.02,0.1-0.016,0.12c-0.214,0.116-0.474,0.148-0.714,0.166c-0.261,0.019-0.509,0.106-0.77,0.099
						c-0.388-0.011-0.747-0.098-1.086-0.29c-0.315-0.18-0.549-0.497-0.756-0.79c-0.296-0.421-0.356-0.644-0.45-1.022
						C303.867,141.99,303.87,141.976,303.876,141.98z"/>
					<path style="fill:#F28F8F;" d="M303.444,146.42c0.231,0.16,0.402,0.374,0.741,0.7c0.269,0.259,0.598,0.461,0.94,0.618
						c0.162,0.074,0.447,0.15,0.622,0.178c0.171,0.027,0.964,0.07,1.075,0.088c0.137,0.022,0.295,0.062,0.404,0.15
						c0.033,0.026,0.02,0.1-0.016,0.12c-0.214,0.116-0.474,0.148-0.714,0.166c-0.261,0.019-0.509,0.106-0.77,0.099
						c-0.388-0.011-0.747-0.098-1.086-0.29c-0.315-0.18-0.549-0.497-0.756-0.79c-0.296-0.421-0.356-0.643-0.45-1.022
						C303.435,146.43,303.437,146.415,303.444,146.42z"/>
				</g>
			</g>
		</g>
	</g>
</g>
<g id="Speech_Bubble_2">
	<g id="Speech_Bubble_00000067197945793974462930000002880511189875508667_">
		<g id="Speech_Bubble_00000090295969455545070960000006089177229935004091_">
			<path style="fill:#FFFFFF;" d="M410.433,45.882c-7.203,4.649-11.939,11.691-13.886,19.419l-0.688,3.651
				c-0.975,7.381,0.546,15.134,4.888,21.864c9.721,15.059,29.875,19.407,44.934,9.686c6.73-4.342,11.315-10.784,13.464-17.905
				l0.868-3.617c1.423-7.842,0.004-16.209-4.645-23.412C445.647,40.509,425.492,36.161,410.433,45.882z"/>
			<path style="fill:#455A64;" d="M408.937,43.573c-14.65,9.452-19.94,28.019-13.265,43.535l-6.437,8.865
				c-1.099,1.514,0.239,3.587,2.071,3.209l10.729-2.213c11.383,12.475,30.483,15.308,45.138,5.849
				c16.339-10.532,21.054-32.407,10.51-48.742C447.14,37.741,425.272,33.03,408.937,43.573z M455.367,55.568
				c4.649,7.203,6.068,15.57,4.645,23.412l-0.868,3.617c-2.149,7.121-6.734,13.562-13.464,17.905
				c-15.059,9.721-35.213,5.372-44.934-9.687c-4.342-6.73-5.863-14.483-4.888-21.864l0.688-3.651
				c1.947-7.728,6.683-14.77,13.886-19.419C425.492,36.161,445.647,40.509,455.367,55.568z"/>
		</g>
		<g id="Symbol_00000040575044520980425220000004098653098212162698_">
			<g>
				<path style="fill:#BA68C8;" d="M445.878,63.158c-2.005-6.511-7.507-10.528-14.019-11.647c-3.492-0.6-7.238-0.124-10.271,1.783
					c-2.75,1.728-5.544,4.953-5.289,8.405c0.033,0.441,1.202,0.965,1.395,0.384c0.422-1.274,0.435-1.971,1.146-3.122
					c0.708-1.146,1.889-2.414,2.949-3.245c2.269-1.778,5.375-2.309,8.241-2.203c5.711,0.211,10.556,2.728,13.076,7.98
					c2.438,5.081,1.441,11.184-1.958,15.578c-1.822,2.356-3.736,3.767-6.084,5.545c-2.52,1.909-4.385,3.201-5.973,5.547
					c-0.788,1.164-1.467,2.42-2.417,3.466c-1.025,1.129-2.504,1.61-4.015,1.512c-1.544-0.1-3.569-0.823-4.802-1.827
					c-1.017-0.828-2.417-2.125-2.569-5.064c-0.062-1.187-1.427-0.933-1.482,0.429c-0.06,1.459-0.063,2.382,0.922,3.997
					c0.832,1.365,2.217,2.681,3.621,3.336c2.752,1.283,6.652,1.752,9.133-0.256c2.366-1.915,3.303-5.014,5.666-6.959
					c2.575-2.12,4.851-3.67,7.335-5.92C445.341,76.472,447.849,69.557,445.878,63.158z"/>
				<path style="fill:#BA68C8;" d="M438.683,63.354c0.314-0.426,0.043-1.249-0.11-1.681c-0.131-0.371-0.333-0.719-0.57-1.036
					c-1.785-2.377-5.19-3.348-8.05-3.086c-3.876,0.355-8.705,3.456-8.368,7.857c0.15,1.951,1.638,3.779,3.601,4.102
					c1.899,0.312,3.417-0.864,5.148-1.368c2.586-0.753,3.61,1.993,3.647,4.092c0.021,1.157,0.025,2.542-0.391,3.638
					c-0.389,1.026-1.291,1.319-2.27,1.549c-0.92,0.216-1.886,0.372-2.711,0.863c-1.067,0.635-1.389,1.643-1.958,2.675
					c-0.354,0.644-0.945,1.294-1.584,1.66c-0.628,0.36-1.306,0.302-1.963,0.067c-0.651-0.234-1.114-0.774-1.473-1.353
					c-0.195-0.314-0.302-0.789-0.606-1.016c-0.625-0.465-1.048,0.141-1.172,0.701c-0.16,0.72,0.113,1.479,0.535,2.059
					c0.869,1.195,2.555,1.729,3.99,1.526c1.422-0.201,2.773-1.097,3.621-2.241c0.61-0.822,0.796-2.056,1.692-2.631
					c0.719-0.462,1.671-0.541,2.482-0.744c0.767-0.193,1.54-0.46,2.16-0.967c0.984-0.804,1.299-2.042,1.419-3.254
					c0.214-2.166,0.327-4.552-0.978-6.424c-1.23-1.764-3.269-2.409-5.295-1.749c-1.535,0.5-3.65,2.126-5.1,0.659
					c-1.88-1.902-0.326-4.741,1.37-6.118c1.847-1.5,4.349-2.139,6.69-1.737c1.071,0.184,2.085,0.616,2.993,1.208
					c0.874,0.57,1.334,1.272,1.87,2.131c0.281,0.45,0.692,1.298,1.32,0.69C438.643,63.404,438.664,63.38,438.683,63.354z"/>
			</g>
			<path style="fill:#455A64;" d="M407.391,80.918L407.391,80.918c-0.362-0.877,0.056-1.882,0.934-2.244l40.922-16.85
				c0.878-0.362,1.882,0.056,2.244,0.934l0,0c0.362,0.877-0.057,1.882-0.934,2.244l-40.922,16.85
				C408.757,82.214,407.752,81.796,407.391,80.918z"/>
		</g>
	</g>
</g>
<g id="Character_1">
	<g id="Character_00000010268666501240493140000005389718778777190326_">
		<g id="Bottom_00000158028278228156882660000012891544791498917785_">
			<g>
				<path style="fill:#B16668;" d="M115.627,384.007c1.278-15.04,0.083-21.364,1.621-44.854l0,0
					c0.184-6.023,0.479-12.475,0.953-18.204c1.594-19.275,4.662-25.837,4.983-29.557c0,0-1.01-33.704,0.757-75.901
					c0.831-19.85,6.685-25.799,11.432-36.288l58.298,0.65c3.082,26.275,2.904,75.018,2.404,101.82
					c-0.255,13.665-6.525,81.535-6.656,83.216c-0.464,5.961,0.032,8.321,2.352,10.857c4.859,5.308,11.935,10.389,18.047,15.038
					c-0.921,2.337-8.337,2.168-11.987,0.341c-5.832-2.919-11.602-7.339-13.586-8.835c-5.023-3.789-12.373-6.877-12.389-12.558
					c-0.006-0.707-0.196-0.905-0.158-1.016c-0.057-3.317-6.478-47.112-6.99-58.467c-0.441-9.762,0.95-26.307,0.95-26.307
					l-5.207-33.645c0,0-2.312,28.079-6.456,44.715c-3.373,13.541-9.312,31.417-13.126,48.086l0,0
					c-3.699,19.21-8.963,32.855-9.959,42.481c-0.294,2.297-3.179,24.85-4.322,30.01c-1.143,5.16-12.475,5.171-13.096-3.733
					C113.076,405.931,115.386,386.838,115.627,384.007z"/>
			</g>
			<g>
				<path style="fill:#263238;" d="M220.239,396.903c0.313,0,0.783,3.44-0.922,4.901c-1.968,1.686-7.743,4.454-15.369,3.469
					c-7.626-0.985-11.753-3.334-14.802-5.877c-3.049-2.543-7.323-6.129-10.772-6.888c-3.204-0.705-7.166-3.099-8.191-4.085
					c-1.024-0.985-0.877-5.367-0.877-5.367L220.239,396.903z"/>
				<path id="XMLID_00000000180347307659442060000017911723373805547945_" style="fill:#37474F;" d="M171.555,367.111
					c0,0-0.575,0.018-0.774,1.032c-0.236,1.207-0.493,4.719-1,6.701c-0.703,2.754-0.751,7.474-0.334,9.72
					c0.418,2.245,6.123,4.755,9.461,6.022c3.409,1.294,7.35,3.959,10.809,6.801c3.58,2.942,11.117,5.895,16.088,5.97
					c7.588,0.114,12.505-1.932,14.026-4.644c1.881-3.356,0.411-5.302-8.305-9.327c-1.65-0.762-7.445-4.179-9.42-5.417
					c-2.087-1.309-4.087-2.764-5.929-4.398c-0.932-0.826-1.824-1.699-2.659-2.622c-0.736-0.813-1.771-1.796-2.206-2.807
					c-0.098-0.229-0.167-0.497-0.255-0.735c-0.254-0.686-0.428-1.319-0.566-2.034c-0.14-0.721-0.227-1.773-0.916-2.206
					c-0.791-0.497-2.22-0.435-3.117-0.368c-1.128,0.084-2.261,0.227-3.363,0.472c-1.284,0.286-2.769,0.399-3.531,1.597
					c-0.584,0.919-0.675,2.08-0.722,3.143c-0.022,0.506-0.012,1.016-0.017,1.523c-0.002,0.216,0.09,0.606-0.215,0.515
					c-0.29-0.086-0.613-0.843-0.722-1.1c-0.241-0.568-0.395-1.174-0.66-1.732c-0.302-0.638-0.643-1.292-1.083-1.837
					c-0.411-0.509-1.77-1.02-2.288-1.422c-0.472-0.366-1.074-0.548-1.493-0.963C171.833,368.469,171.601,367.54,171.555,367.111z"/>
				<path style="fill:#FAFAFA;" d="M212.932,390.049c-10.988,0.748-14.455,7.496-14.926,11.673c2.721,0.961,5.527,1.601,7.8,1.635
					c7.588,0.114,12.817-1.928,14.338-4.641C221.917,395.55,220.717,392.994,212.932,390.049z"/>
				<g>
					<g>
						<path style="fill:#F0F0F0;" d="M196.461,390.152c-0.119,0-0.239-0.039-0.339-0.121c-0.23-0.186-0.262-0.523-0.075-0.751
							c1.531-1.862,5.945-4.327,9.938-3.892c0.296,0.031,0.509,0.296,0.476,0.588c-0.032,0.292-0.289,0.504-0.591,0.473
							c-3.727-0.395-7.778,2.03-8.993,3.507C196.772,390.086,196.618,390.152,196.461,390.152z"/>
					</g>
					<g>
						<path style="fill:#F0F0F0;" d="M191.733,387.407c-0.12,0-0.24-0.039-0.34-0.121c-0.23-0.186-0.262-0.523-0.075-0.751
							c1.533-1.864,5.948-4.334,9.938-3.892c0.296,0.031,0.508,0.296,0.475,0.588c-0.031,0.292-0.284,0.504-0.591,0.473
							c-3.727-0.4-7.778,2.03-8.992,3.507C192.043,387.341,191.889,387.407,191.733,387.407z"/>
					</g>
					<g>
						<path style="fill:#F0F0F0;" d="M187.352,384.272c-0.12,0-0.24-0.039-0.34-0.121c-0.229-0.186-0.262-0.523-0.075-0.752
							c1.531-1.864,5.963-4.33,9.938-3.892c0.295,0.031,0.508,0.296,0.475,0.588c-0.032,0.293-0.286,0.503-0.592,0.473
							c-3.722-0.397-7.778,2.03-8.992,3.507C187.662,384.206,187.508,384.272,187.352,384.272z"/>
					</g>
					<g>
						<path style="fill:#F0F0F0;" d="M183.06,381.137c-0.116,0-0.235-0.038-0.333-0.116c-0.233-0.183-0.27-0.519-0.086-0.75
							c2.107-2.643,6.864-4.382,10.852-3.946c0.295,0.031,0.509,0.296,0.476,0.588c-0.031,0.292-0.288,0.497-0.591,0.473
							c-3.591-0.39-8.027,1.205-9.897,3.548C183.375,381.069,183.218,381.137,183.06,381.137z"/>
					</g>
				</g>
			</g>
			<g>
				<path style="fill:#263238;" d="M130.097,419.662c-0.363,5.152-1.208,8.56-3.083,11.563c-1.874,3.003-5.354,3.913-8.856,2.989
					c-3.502-0.925-7.973-3.341-8.927-7.799c-0.954-4.458-1.505-7.512-0.651-12.284L130.097,419.662z"/>
				<path id="XMLID_00000049196051102794658580000014854603617695653773_" style="fill:#37474F;" d="M115.773,382.168
					c-1.448,0.097-1.958,7.013-2.874,13.935c-0.982,7.419-3.248,10.466-4.119,16.548c-0.996,6.948,0.125,10.07,2.527,14.305
					c2.4,4.235,11.027,8.459,15.374,2.481c3.543-4.874,3.752-10.32,3.517-17.272c-0.244-7.187,0.315-12.155,0.674-17.603
					c0.343-5.207,1.565-10.448,0.314-11.042c-0.105,0.764-0.211,1.734-0.323,2.484c-0.137,0.923-0.152,1.894-0.5,2.773
					c-0.152,0.385-0.48,0.788-0.604,0.157c-0.084-0.429-0.036-0.87,0.016-1.296c0.235-1.917-0.736-2.084-1.258-2.239
					c-1.133-0.336-5.619-0.936-6.702-1.021c-1.105-0.088-4.92-0.295-5.423,0.326c-0.34,0.42-0.397,1.13-0.511,2.007
					c-0.136,1.046-0.389,1.81-0.415,1.481c-0.06-0.75,0.109-2.698,0.134-3.169c0.023-0.451,0.105-1.066,0.116-1.519
					C115.728,383.058,115.737,382.612,115.773,382.168z"/>
				<path style="fill:#FAFAFA;" d="M108.33,416.678c-0.301,4.318,0.702,7.289,2.581,10.604c2.4,4.235,11.726,8.481,16.073,2.503
					c2.163-2.975,2.775-6.513,3.111-10.126C127.588,414.985,112.419,412.769,108.33,416.678z"/>
				<g>
					<g>
						<path style="fill:#F0F0F0;" d="M127.027,412.057c-0.06-0.007-0.12-0.023-0.177-0.051c-0.058-0.028-6.722-2.858-13.258-1.43
							c-0.289,0.058-0.575-0.12-0.639-0.408c-0.063-0.288,0.121-0.573,0.411-0.636c6.913-1.506,13.708,1.393,13.962,1.514
							c0.266,0.132,0.375,0.451,0.244,0.716C127.467,411.969,127.246,412.081,127.027,412.057z"/>
					</g>
					<g>
						<path style="fill:#F0F0F0;" d="M113.977,405.393c-0.202-0.022-0.384-0.16-0.451-0.364c-0.09-0.281,0.062-0.583,0.344-0.674
							c6.515-2.114,13.677,1.248,13.946,1.393c0.262,0.139,0.359,0.462,0.217,0.722c-0.141,0.259-0.471,0.35-0.726,0.217
							c-0.061-0.032-7.041-3.291-13.103-1.316C114.128,405.395,114.052,405.401,113.977,405.393z"/>
					</g>
					<g>
						<path style="fill:#F0F0F0;" d="M114.263,400.505c-0.199-0.022-0.377-0.156-0.447-0.355c-0.097-0.28,0.051-0.584,0.331-0.68
							c7.167-2.464,13.959,1.199,14.211,1.355c0.252,0.157,0.329,0.485,0.171,0.735c-0.157,0.251-0.494,0.328-0.739,0.171
							c-0.056-0.036-6.621-3.543-13.291-1.252C114.42,400.506,114.34,400.514,114.263,400.505z"/>
					</g>
					<g>
						<path style="fill:#EBEBEB;" d="M114.675,395.695c-0.196-0.022-0.373-0.152-0.444-0.348c-0.101-0.277,0.042-0.583,0.322-0.684
							c6.717-2.417,14.031,1.342,14.305,1.505c0.255,0.148,0.339,0.477,0.188,0.731c-0.149,0.255-0.478,0.343-0.734,0.188
							c-0.064-0.037-7.156-3.665-13.393-1.42C114.837,395.695,114.755,395.704,114.675,395.695z"/>
					</g>
				</g>
			</g>
			<g>
				<g>
					<path style="fill:#37474F;" d="M129.257,179.333c-6.647,11.734-6.948,21.358-8.022,56.456
						c-1.075,35.098-1.007,48.629-1.195,52.86c-0.188,4.231-0.954,11.77-3.375,32.597c-2.421,20.827-0.511,40.469-0.511,40.469
						s1.46,3.372,9.466,4.176c7.385,0.742,11.079-1.978,11.079-1.978s10.137-35.7,13.235-48.193
						c4.693-18.927,10.415-57.022,10.415-57.022l3.807,25.792c0,0-2.391,11.482-0.353,29.793c2.038,18.31,4.633,31.778,4.633,31.778
						s6.302,2.134,12.629,2.11c6.326-0.024,10.341-2.772,10.341-2.772s6.439-48.874,6.685-69.6
						c0.245-20.726-1.389-70.625-3.095-95.526L129.257,179.333z"/>
				</g>
				<path style="fill:#263238;" d="M117.519,363.229c0.298,0.232,0.658,0.474,1.086,0.716c-1.653-32.79,3.032-46.329,5.912-58.84
					c0.277-1.202,0.54-2.344,0.783-3.435c2.179-9.78,0.427-26.208,0.585-42.327c0.048-4.849,0.097-9.864,0.207-15.189
					c0.128-6.23,0.394-12.679,0.98-19.055c11.497-1.235,14.124-12.49,17.431-26.7c0.452-1.942,0.92-3.951,1.427-6.013l-1.017-0.246
					c-0.507,2.066-0.976,4.079-1.429,6.025c-3.314,14.239-5.747,24.581-16.313,25.856c1.421-14.48,4.595-28.492,11.86-38.563
					l-0.849-0.606c-10.808,14.98-12.705,38.374-13.137,59.283c-0.11,5.33-0.16,10.347-0.208,15.199
					c-0.157,16.059,1.594,32.438-0.561,42.112c-0.243,1.089-0.505,2.229-0.782,3.428
					C120.626,317.344,115.964,330.767,117.519,363.229z M167.437,222.127l-7.088,36.57l3.807,25.792l0.378-24.786l4.772-24.663
					c0.137,2.456,0.28,4.974,0.426,7.545c1.204,21.204,1.936,37.483,0.762,42.525c-3.22,13.822-2.424,22.573-0.981,38.46
					c0.146,1.613,0.299,3.298,0.456,5.068c0.791,8.977,1.818,12.612,2.419,18.391c0.332,0.087,0.696,0.176,1.08,0.264
					c-0.601-5.764-1.649-9.581-2.457-18.747c-0.156-1.77-0.309-3.456-0.455-5.071c-1.434-15.78-2.224-24.472,0.957-38.131
					c1.208-5.188,0.53-20.507-0.736-42.82c-0.23-4.048-0.452-7.968-0.655-11.703l1.003-4.444
					c5.038-1.142,13.135-4.877,14.688-11.758C177.975,222.59,167.437,222.127,167.437,222.127z"/>
			</g>
		</g>
		<g id="Top_00000045611722507058797430000010726212305222047877_">
			<g>
				<path style="fill:#B16668;" d="M179.635,112.136c6.495,1.793,10.291,2.138,18.805,11.341
					c15.043,16.261,25.371,24.545,29.052,30.315l-21.461,11.359l-25.997-26.491L179.635,112.136z"/>
				<path style="fill:#9A4A4D;" d="M200.453,159.467l13.539-9.118c-5.839-0.549-12.981,4.253-16.314,6.289L200.453,159.467z"/>
				<path style="fill:#BA68C8;" d="M178.753,111.395c12.691,2.174,13.982,5.402,20.687,12.083
					c6.706,6.681,14.195,15.315,14.195,15.315s-4.44,1.055-10.072,5.82c-5.113,4.325-7.833,11.195-7.833,11.195l-16.765-17.164
					L178.753,111.395z"/>
			</g>
			<path id="Chest_00000002365805782998505670000012963908690351841725_" style="fill:#455A64;" d="M140.563,108.449
				c0,0-10.295,3.686-19.391,6.971c0,0-8.1,3.731-2.648,33.048c1.375,7.391,4.174,18.153,4.938,27.288
				c0.434,5.193-0.335,17.529-1.025,28.226c0,0,16.598,10.849,46.277,7.536c23.302-2.601,27.654-13.181,27.654-13.181
				s-1.507-25.915-3.451-43.249c-2.792-24.892-7.766-38.814-14.163-43.693l-13.272-1.418L140.563,108.449z"/>
			<g id="Head_00000084521657517569907030000003637052851864272259_">
				<g id="XMLID_00000125584856182046424900000005124151617932772747_">
					<path style="fill:#263238;" d="M133.168,85.167c2.288,7.649,4.877,10.943,6.049,13.057s3.473,2.654,3.473,2.654l-0.483-9.194
						l-0.511-6.402c0,0,4.986-4.826,5.303-9.444c0.139-2.03-0.05-3.744-0.355-5.13l30.62,1.212c0,0,2.601-7.831-1.591-13.842
						c-4.016-5.76-9.827-9.358-20.066-8.535c-12.497,1.006-18.818,7.348-19.566,12.543l0.01,0.009
						c-1.243,0.508-3.18,1.733-4.583,4.65C130.347,69.073,129.613,73.282,133.168,85.167z"/>
					<path style="fill:#B16668;" d="M134.483,93.846c0.28,0.193,0.573,0.368,0.881,0.521c0.765,0.382,1.717,0.731,2.584,0.74
						c0.744,0.008,1.534-0.374,2.185-0.733c0.731-0.402,1.464-0.926,2.011-1.565l-1.711,16.923
						c6.047,11.352,33.598,14.019,24.368,2.035l0.335-6.145c0,0,1.582-0.039,4.072-0.511c4.156-0.776,8.076-4.088,9.196-8.691
						c1.653-6.811,0.343-21.006-0.977-28.971c-0.372-2.247-2.719-4.849-4.765-5.805c-5.078-2.372-9.614,1.361-16.52,4.296
						c-2.86,1.216-9.857,1.902-11.73,1.073c1.744,2.227,1.934,4.45,1.953,5.743c0.019,1.365-0.27,3.214-0.774,4.488
						c-0.506,1.277-1.148,2.515-1.411,3.874c-0.12,0.623-0.186,1.319-0.65,1.752c-0.589,0.548-1.572,0.396-2.223-0.075
						c-0.652-0.471-1.079-1.181-1.588-1.804c-0.67-0.821-1.526-1.522-2.538-1.834c-1.937-0.597-4.13,0.402-5.31,2.05
						c-1.18,1.647-1.471,3.8-1.227,5.812C130.969,89.689,132.295,92.335,134.483,93.846z"/>
					<path style="fill:#9A4A4D;" d="M165.137,105.623c-5.478,0.112-10.357-0.443-13.627-1.736c-3.269-1.293-6.254-5.638-7.311-9.998
						c0.095,3.529,1.794,9.747,6.764,12.217c4.97,2.47,10.434,2.353,14.02,2.337L165.137,105.623z"/>
				</g>
				<g id="XMLID_00000074425898143726472110000001710353226021198775_">
					<path id="XMLID_00000183961766806468128600000009639406361551568558_" style="fill:#263238;" d="M156.934,72.876l-4.072,2.959
						c-0.799-1.191-0.535-2.82,0.59-3.637C154.577,71.381,156.136,71.684,156.934,72.876z"/>
					<path id="XMLID_00000127750529827906966600000007488909383182789540_" style="fill:#263238;" d="M175.496,73.231l-5.01-0.782
						c0.157-1.416,1.406-2.388,2.789-2.172C174.659,70.493,175.654,71.815,175.496,73.231z"/>
					<path style="fill:#263238;" d="M155.727,78.628c0.114,1.138,1.118,1.968,2.243,1.854c1.125-0.114,1.945-1.128,1.831-2.266
						c-0.114-1.138-1.118-1.968-2.243-1.854C156.433,76.476,155.613,77.49,155.727,78.628z"/>
					<path style="fill:#263238;" d="M170.905,77.133c0.114,1.138,1.118,1.968,2.243,1.854c1.125-0.114,1.945-1.128,1.831-2.266
						c-0.114-1.138-1.118-1.968-2.243-1.854C171.611,74.981,170.791,75.995,170.905,77.133z"/>
					<path id="XMLID_00000064329573631590710690000005886843701438760105_" style="fill:#9A4A4D;" d="M164.197,75.329l1.952,13.057
						l7.286-3.025C170.691,80.881,167.611,77.538,164.197,75.329z"/>
				</g>
			</g>
			<g>
				<g>
					<path style="fill:#B16668;" d="M121.274,116.164c-13.493,6.354-12.653,17.822-8.229,30.346
						c3.685,10.431,5.429,13.52,10.917,25.186c3.868,8.223,10.937,15.101,17.106,14.271c6.169-0.829,10.686-7.908,8.103-17.104
						c-2.583-9.196-13.074-31.221-13.074-31.221S129.608,119.002,121.274,116.164z"/>
				</g>
				<path style="fill:#9A4A4D;" d="M147.396,163.599c-1.469-3.926-3.432-8.572-5.312-12.846
					c-8.533,11.322-8.111,16.964-6.805,23.383l6.484-3.251L147.396,163.599z"/>
				<path style="fill:#BA68C8;" d="M112.083,146.938c-4.424-12.524-4.404-25.164,9.089-31.518
					c8.334,2.838,15.487,22.413,15.487,22.413l4.673,10.144c0,0,0.258,3.525-9.285,8.941c-9.543,5.416-13.584,4.643-13.584,4.643
					L112.083,146.938z"/>
			</g>
			<g>
				<path style="fill:#B16668;" d="M174.863,109.569c-0.122-0.215-0.257-0.425-0.344-0.656c-0.142-0.379-0.145-0.793-0.184-1.196
					c-0.094-0.988-0.437-1.994-1.166-2.666c-0.317-0.292-0.692-0.509-1.053-0.743c-0.123-0.08-0.247-0.164-0.339-0.279
					c-0.28-0.351-0.18-0.857-0.254-1.3c-0.161-0.966-1.243-1.59-2.216-1.477c-1.172,0.136-1.906,0.997-2.499,1.919
					c-0.048,0.074-0.098,0.153-0.176,0.192c-0.083,0.042-0.181,0.033-0.274,0.028c-0.438-0.028-0.886,0.037-1.297,0.193
					c-0.395,0.15-0.756,0.394-1.033,0.714c-0.633,0.733-0.799,1.748-0.939,2.706c-0.233,1.586-0.362,3.179-0.603,4.771
					c-0.471,3.115-0.517,6.348-1.986,9.195c-0.136,0.264-0.358,0.563-0.65,0.514c-0.268-0.046-0.391-0.355-0.451-0.621
					c-0.621-2.774,0.819-5.819-1.528-8.117c-2.041-1.998-2.052,2.198-2.281,3.305c-0.308,1.488-0.617,2.976-0.925,4.464
					c-0.51,2.464-1.024,4.968-0.825,7.477c0.187,2.368,1.004,4.662,1.076,7.036c0.073,2.426-0.134,5.606-1.516,7.58
					c-5.822,8.315-9.898,11.405-9.898,11.405s-6.401,7.22-7.633,14.369c-1.723,9.996,0.41,17.498,4.402,17.583
					c1.86,0.04,5.061-0.74,8.274-3.657c1.585-1.439,2.822-2.813,4.453-4.886c7.784-9.427,11.828-20.098,17.866-35.379
					c3.378-8.549,5.417-18.498,5.712-22.401c0.131-1.724,0.154-3.611-0.121-5.319C176.201,112.749,175.651,110.959,174.863,109.569z
					"/>
				<g>
					<path style="fill:#9A4A4D;" d="M152.998,177.422c6.741-8.338,10.824-18.34,14.723-28.226
						c2.986-7.427,5.833-14.874,7.384-22.738c0.794-3.877,1.529-7.832,1.033-11.771c-0.276-1.996-0.903-3.783-1.903-5.559
						c-0.301-0.663-0.176-1.356-0.348-2.018c-0.197-0.93-0.663-1.713-1.475-2.206c-0.301-0.166-0.624-0.415-0.888-0.651
						c-0.319-0.393-0.286-0.847-0.307-1.152c0.028-0.908-0.789-1.501-1.64-1.528c-1.265-0.039-2.012,1.093-2.695,2.013
						c-0.148,0.124-0.351,0.14-0.449,0.132c-1.275-0.13-2.381,0.597-2.726,1.836c-0.546,2.141-0.802,5.599-1.173,7.849
						c-0.34,2.659-0.607,5.399-1.931,7.811c-0.182,0.383-0.795,0.696-1.133,0.275c-0.571-0.966-0.392-2.037-0.415-3.079
						c0.107-1.951,0.265-4.098-1.235-5.554c-0.406-0.454-1.109-0.838-1.464-0.117c-0.587,1.167-0.492,2.578-0.833,3.866
						l-0.856,3.908l0.767-3.926c0.316-1.289,0.169-2.67,0.764-3.938c0.419-0.858,1.272-0.503,1.785,0.045
						c2.163,2.003,1.171,5.14,1.534,7.688c0.062,0.482,0.248,1.347,0.73,0.61c1.751-3.415,1.656-7.883,2.256-11.629
						c0.309-2.566,0.299-6.557,3.952-6.292c0.066,0,0.041-0.006,0.024,0.008c-0.003,0.007,0.034-0.042,0.083-0.12
						c0.661-1.064,1.669-2.076,3.033-2.05c1.145-0.016,2.355,0.962,2.304,2.162c0,0.574,0.074,0.739,0.47,0.989
						c1.112,0.579,1.99,1.662,2.206,2.9c0.184,0.7,0.082,1.425,0.323,1.907c1.724,2.892,2.332,6.44,2.119,9.78
						c-0.997,10.74-4.601,20.97-8.758,30.763C164.255,159.262,159.953,169.251,152.998,177.422L152.998,177.422z"/>
				</g>
				<path style="fill:#9A4A4D;" d="M166.981,103.631c0.326,0.589,0.312,1.28,0.331,1.935c-0.02,1.991-0.079,4.012-0.224,5.989
					c-0.188,2.341-0.414,5.69-0.623,7.995c0.876-3.917,1.289-7.975,1.218-11.983C167.589,106.262,167.748,104.762,166.981,103.631z
					 M170.624,120.425c1.383-5.263,1.415-10.82,0.977-16.219C171.267,109.549,171.394,115.129,170.624,120.425z M174.039,121.226
					c0.91-3.955,1.106-8.128,0.49-12.142C174.458,112.629,174.2,117.638,174.039,121.226z"/>
			</g>
			<g>
				<path id="XMLID_00000152261488685633525710000011631776965648217996_" style="fill:#9A4A4D;" d="M160.114,89.837l7.764,2.06
					c-0.526,2.218-2.69,3.557-4.835,2.988C160.899,94.316,159.588,92.055,160.114,89.837z"/>
				<path style="fill:#F28F8F;" d="M161,91.161c-0.331-0.052-0.655-0.054-0.972-0.034c0.124,1.744,1.291,3.299,3.015,3.757
					c0.432,0.115,0.863,0.133,1.283,0.101C164.533,93.185,163.078,91.487,161,91.161z"/>
			</g>
			<path style="fill:#B16668;" d="M196.846,180.524c1.8-1.294,3.626-2.267,6.717-3.754c2.103-1.011,5.897-2.244,8.716-3.482
				c6.814-2.993,11.341-4.715,14.75-10.087c3.618-5.701,2.043-8.352-1.671-12.21c-0.501-0.52-4.67-1.714-8.893-1.088
				c-4.95,0.734-7.19,1.824-11.318,4.588c-4.342,2.908-13.147,10.66-16.58,12.112c-2.618,1.107-4.71,0.775-7.4,0.587
				c-3.807-0.265-8.614,0.804-12.337,1.646c-0.541,0.122-1.145,0.291-1.41,0.778c-0.214,0.396-0.125,0.905,0.128,1.277
				c0.749,1.101,2.173,1.364,3.408,1.47c0.941,0.08,3.952-0.164,4.688,0.474c1.224,1.062-2.326,2.852-3.007,3.24
				c-1.142,0.652-2.35,1.184-3.579,1.649c-2.027,0.766-4.195,1.09-6.168,1.894c-0.674,0.275-1.365,0.54-1.945,0.981
				c-0.58,0.44-1.046,1.091-1.081,1.818c-0.035,0.727,0.467,1.497,1.188,1.596c-1.83,0.466-2.342,1.339-2.569,2.231
				c-0.12,0.472,0.07,1.123,0.424,1.473c0.381,0.376,1.455,0.478,1.959,0.508c-0.407,0.746-0.385,1.626-0.054,2.198
				c0.272,0.469,0.906,0.766,1.401,0.931c0.511,0.17,1.618,0.185,2.156,0.202c0.265,1.108,1.328,1.499,2.07,1.61
				c0.997,0.15,1.89,0.088,2.78,0.014c3.464-0.288,5.927-1.181,9.182-2.301c4.02-1.383,8.804-3.774,12.397-6.084
				C193.24,183.227,195.307,181.631,196.846,180.524z"/>
			<g>
				<path style="fill:#9A4A4D;" d="M178.747,186.981c-4.829,2.045-9.217,3.816-14.377,4.576
					C169.596,191.527,174.211,189.693,178.747,186.981z"/>
				<path style="fill:#9A4A4D;" d="M161.178,184.214c0.778,0.199,1.545,0.036,2.317-0.024c4.523-0.648,8.946-2.266,12.92-4.683
					c-4.186,1.859-8.51,3.439-12.974,4.273c-1.305,0.293-3.465,0.595-3.561-1.49C159.753,183.146,160.386,184.021,161.178,184.214z"
					/>
				<path style="fill:#9A4A4D;" d="M169.482,186.998c2.823-1.008,5.643-2.159,8.135-3.932c-5.362,2.504-11.038,5.035-16.977,5.176
					C163.636,188.758,166.644,187.875,169.482,186.998z"/>
			</g>
		</g>
	</g>
</g>
<g id="Speech_Bubble_1">
	<g id="Speech_Bubble_00000054257648417875617380000017929552602190771850_">
		<g id="Speech_Bubble_00000004516973551421991380000013048147702910735259_">
			<path style="fill:#FFFFFF;" d="M88.333,45.882c7.203,4.649,11.939,11.691,13.886,19.419l0.688,3.651
				c0.976,7.381-0.545,15.134-4.888,21.864c-9.721,15.059-29.875,19.407-44.934,9.686c-6.73-4.342-11.315-10.784-13.464-17.905
				l-0.868-3.617c-1.423-7.842-0.004-16.209,4.645-23.412C53.119,40.509,73.274,36.161,88.333,45.882z"/>
			<path style="fill:#455A64;" d="M41.083,54.076c-10.544,16.335-5.829,38.21,10.51,48.742c14.656,9.46,33.756,6.627,45.139-5.849
				l10.729,2.213c1.832,0.378,3.17-1.696,2.071-3.209l-6.437-8.865c6.676-15.515,1.385-34.083-13.265-43.535
				C73.494,33.03,51.626,37.741,41.083,54.076z M88.333,45.882c7.203,4.649,11.939,11.691,13.886,19.419l0.688,3.651
				c0.976,7.381-0.545,15.134-4.888,21.864c-9.721,15.059-29.875,19.407-44.934,9.687c-6.73-4.342-11.315-10.784-13.464-17.905
				l-0.868-3.617c-1.423-7.842-0.004-16.209,4.645-23.412C53.119,40.509,73.274,36.161,88.333,45.882z"/>
		</g>
		<g id="Symbol_00000015345083177502458640000009029946880798905753_">
			<g>
				<g>
					<path style="fill:#BA68C8;" d="M57.352,84.226l-7.564,1.729c-0.52,0.119-1.037-0.206-1.156-0.726l-2.787-12.192
						c-0.119-0.52,0.206-1.037,0.726-1.156l7.564-1.729c0.52-0.119,1.037,0.206,1.156,0.726l2.787,12.192
						C58.197,83.59,57.872,84.108,57.352,84.226z"/>
					<path style="fill:#BA68C8;" d="M72.859,90.961l-16.603-6.484l-3.218-14.074l12.136-13.054c1.466-1.577,4.099-0.871,4.579,1.228
						l6.696,29.288C76.929,89.964,74.865,91.744,72.859,90.961z"/>
				</g>
				<g id="XMLID_00000119820334702789297580000016413742846261457837_">
					<g id="XMLID_00000163769944922559851670000007194951461968064643_">
						<path style="fill:#BA68C8;" d="M84.437,70.627c-0.917-4.009-3.962-6.979-7.667-7.988c-0.752-0.205-1.545,0.168-1.875,0.873
							l-0.004,0.008c-0.417,0.889,0.056,1.954,1.005,2.207c2.625,0.698,4.773,2.796,5.418,5.614c0.646,2.826-0.381,5.648-2.44,7.41
							c-0.75,0.642-0.714,1.811,0.054,2.431l0.007,0.006c0.604,0.488,1.478,0.477,2.064-0.032
							C83.9,78.638,85.354,74.638,84.437,70.627z"/>
					</g>
				</g>
				<g id="XMLID_00000040572236334787760250000002444911797689757076_">
					<g id="XMLID_00000103231830809029255030000009476827023010604476_">
						<path style="fill:#BA68C8;" d="M90.809,69.171c-1.362-5.959-5.678-10.494-11.055-12.425c-0.791-0.284-1.671,0.05-2.031,0.809
							l-0.007,0.014c-0.409,0.862,0.028,1.871,0.928,2.189c4.398,1.555,7.928,5.255,9.042,10.127
							c1.114,4.873-0.456,9.753-3.742,13.067c-0.671,0.677-0.627,1.774,0.115,2.373l0,0c0.653,0.527,1.589,0.447,2.179-0.149
							C90.248,81.121,92.175,75.144,90.809,69.171z"/>
					</g>
				</g>
			</g>
			<path style="fill:#455A64;" d="M56.351,94.19L56.351,94.19c-0.725-0.455-0.943-1.411-0.488-2.136l25.896-41.289
				c0.455-0.725,1.412-0.944,2.136-0.488l0,0c0.725,0.455,0.944,1.411,0.488,2.136L58.488,93.702
				C58.033,94.427,57.076,94.645,56.351,94.19z"/>
		</g>
	</g>
</g>
</svg>
